<mxfile host="Electron" agent="Mozilla/5.0 (X11; Linux x86_64) AppleWebKit/537.36 (KHTML, like Gecko) draw.io/28.2.5 Chrome/138.0.7204.251 Electron/37.6.1 Safari/537.36" version="28.2.5" pages="2">
  <diagram name="第 1 页" id="EKDKbFcasAf3W2K9UPzu">
    <mxGraphModel dx="4536" dy="2374" grid="1" gridSize="10" guides="1" tooltips="1" connect="1" arrows="1" fold="1" page="1" pageScale="1" pageWidth="827" pageHeight="1169" math="0" shadow="0">
      <root>
        <mxCell id="0" />
        <mxCell id="1" parent="0" />
        <mxCell id="74hEM54ITtvwUSmFD9Kp-1" value="SplitScreenController" style="rounded=1;whiteSpace=wrap;html=1;" parent="1" vertex="1">
          <mxGeometry x="235" y="-130" width="160" height="40" as="geometry" />
        </mxCell>
        <mxCell id="74hEM54ITtvwUSmFD9Kp-2" value="SplitLayout" style="rounded=1;whiteSpace=wrap;" parent="1" vertex="1">
          <mxGeometry x="285" y="-360" width="270" height="40" as="geometry" />
        </mxCell>
        <mxCell id="74hEM54ITtvwUSmFD9Kp-3" value="SplitWindowManager" style="rounded=1;whiteSpace=wrap;" parent="1" vertex="1">
          <mxGeometry x="195" y="-230" width="160" height="40" as="geometry" />
        </mxCell>
        <mxCell id="74hEM54ITtvwUSmFD9Kp-4" value="1" style="endArrow=open;html=1;endSize=12;startArrow=diamondThin;startSize=14;startFill=1;edgeStyle=orthogonalEdgeStyle;align=left;verticalAlign=bottom;rounded=0;exitX=0.25;exitY=1;exitDx=0;exitDy=0;entryX=0.5;entryY=0;entryDx=0;entryDy=0;" parent="1" source="74hEM54ITtvwUSmFD9Kp-2" target="74hEM54ITtvwUSmFD9Kp-3" edge="1">
          <mxGeometry x="-1" y="3" relative="1" as="geometry">
            <mxPoint x="405" y="-60" as="sourcePoint" />
            <mxPoint x="565" y="-60" as="targetPoint" />
            <Array as="points">
              <mxPoint x="353" y="-270" />
              <mxPoint x="275" y="-270" />
            </Array>
          </mxGeometry>
        </mxCell>
        <mxCell id="74hEM54ITtvwUSmFD9Kp-5" value="mSplitWindowManager" style="edgeLabel;align=center;verticalAlign=middle;resizable=0;points=[];" parent="74hEM54ITtvwUSmFD9Kp-4" vertex="1" connectable="0">
          <mxGeometry x="0.1714" y="-2" relative="1" as="geometry">
            <mxPoint as="offset" />
          </mxGeometry>
        </mxCell>
        <mxCell id="74hEM54ITtvwUSmFD9Kp-6" value="DividerSnapAlgorithm" style="rounded=1;whiteSpace=wrap;" parent="1" vertex="1">
          <mxGeometry x="475" y="-230" width="160" height="40" as="geometry" />
        </mxCell>
        <mxCell id="74hEM54ITtvwUSmFD9Kp-7" value="1" style="endArrow=open;html=1;endSize=12;startArrow=diamondThin;startSize=14;startFill=1;edgeStyle=orthogonalEdgeStyle;align=left;verticalAlign=bottom;rounded=0;exitX=0.75;exitY=1;exitDx=0;exitDy=0;entryX=0.5;entryY=0;entryDx=0;entryDy=0;" parent="1" source="74hEM54ITtvwUSmFD9Kp-2" target="74hEM54ITtvwUSmFD9Kp-6" edge="1">
          <mxGeometry x="-1" y="3" relative="1" as="geometry">
            <mxPoint x="515" y="-300" as="sourcePoint" />
            <mxPoint x="315" y="-210" as="targetPoint" />
            <Array as="points">
              <mxPoint x="488" y="-270" />
              <mxPoint x="555" y="-270" />
            </Array>
          </mxGeometry>
        </mxCell>
        <mxCell id="74hEM54ITtvwUSmFD9Kp-10" value="mDividerSnapAlgorithm" style="edgeLabel;align=center;verticalAlign=middle;resizable=0;points=[];" parent="74hEM54ITtvwUSmFD9Kp-7" vertex="1" connectable="0">
          <mxGeometry x="0.1546" y="-1" relative="1" as="geometry">
            <mxPoint as="offset" />
          </mxGeometry>
        </mxCell>
        <mxCell id="74hEM54ITtvwUSmFD9Kp-11" value="StageCoordinator" style="rounded=1;whiteSpace=wrap;" parent="1" vertex="1">
          <mxGeometry x="274" y="-580" width="270" height="50" as="geometry" />
        </mxCell>
        <mxCell id="74hEM54ITtvwUSmFD9Kp-12" value="SplitLayoutHandler" style="rounded=1;whiteSpace=wrap;" parent="1" vertex="1">
          <mxGeometry x="575" y="-430" width="130" height="40" as="geometry" />
        </mxCell>
        <mxCell id="74hEM54ITtvwUSmFD9Kp-13" value="" style="endArrow=block;dashed=1;endFill=0;endSize=12;html=1;rounded=0;exitX=1;exitY=0.5;exitDx=0;exitDy=0;entryX=0.5;entryY=0;entryDx=0;entryDy=0;edgeStyle=orthogonalEdgeStyle;" parent="1" source="74hEM54ITtvwUSmFD9Kp-11" target="74hEM54ITtvwUSmFD9Kp-12" edge="1">
          <mxGeometry width="160" relative="1" as="geometry">
            <mxPoint x="365" y="-280" as="sourcePoint" />
            <mxPoint x="525" y="-280" as="targetPoint" />
          </mxGeometry>
        </mxCell>
        <mxCell id="74hEM54ITtvwUSmFD9Kp-14" value="SplitWindowManager.ParentContainerCallbacks" style="rounded=1;whiteSpace=wrap;" parent="1" vertex="1">
          <mxGeometry y="-440" width="270" height="40" as="geometry" />
        </mxCell>
        <mxCell id="74hEM54ITtvwUSmFD9Kp-15" value="1" style="endArrow=open;html=1;endSize=12;startArrow=diamondThin;startSize=14;startFill=1;align=left;verticalAlign=bottom;rounded=0;entryX=0.5;entryY=0;entryDx=0;entryDy=0;edgeStyle=orthogonalEdgeStyle;exitX=0;exitY=0.5;exitDx=0;exitDy=0;" parent="1" source="74hEM54ITtvwUSmFD9Kp-11" target="74hEM54ITtvwUSmFD9Kp-14" edge="1">
          <mxGeometry x="-0.8533" y="5" relative="1" as="geometry">
            <mxPoint x="153" y="-420" as="sourcePoint" />
            <mxPoint x="120" y="-450" as="targetPoint" />
            <Array as="points">
              <mxPoint x="135" y="-555" />
            </Array>
            <mxPoint as="offset" />
          </mxGeometry>
        </mxCell>
        <mxCell id="74hEM54ITtvwUSmFD9Kp-16" value="mParentContainerCallbacks" style="edgeLabel;align=center;verticalAlign=middle;resizable=0;points=[];" parent="74hEM54ITtvwUSmFD9Kp-15" vertex="1" connectable="0">
          <mxGeometry x="0.1714" y="-2" relative="1" as="geometry">
            <mxPoint as="offset" />
          </mxGeometry>
        </mxCell>
        <mxCell id="74hEM54ITtvwUSmFD9Kp-17" value="ShellTaskOrganizer" style="rounded=1;whiteSpace=wrap;" parent="1" vertex="1">
          <mxGeometry x="-2075" y="-290" width="200" height="50" as="geometry" />
        </mxCell>
        <mxCell id="74hEM54ITtvwUSmFD9Kp-51" style="rounded=0;orthogonalLoop=1;jettySize=auto;html=1;entryX=0.5;entryY=1;entryDx=0;entryDy=0;strokeColor=default;align=center;verticalAlign=middle;fontFamily=Helvetica;fontSize=11;fontColor=default;labelBackgroundColor=default;endArrow=open;endFill=1;endSize=12;exitX=0.701;exitY=-0.022;exitDx=0;exitDy=0;exitPerimeter=0;" parent="1" source="74hEM54ITtvwUSmFD9Kp-18" target="74hEM54ITtvwUSmFD9Kp-40" edge="1">
          <mxGeometry relative="1" as="geometry" />
        </mxCell>
        <mxCell id="74hEM54ITtvwUSmFD9Kp-53" value="mTaskOrganizerController" style="edgeLabel;align=center;verticalAlign=middle;resizable=0;points=[];" parent="74hEM54ITtvwUSmFD9Kp-51" vertex="1" connectable="0">
          <mxGeometry x="0.7843" relative="1" as="geometry">
            <mxPoint y="6" as="offset" />
          </mxGeometry>
        </mxCell>
        <mxCell id="74hEM54ITtvwUSmFD9Kp-63" style="edgeStyle=orthogonalEdgeStyle;rounded=0;orthogonalLoop=1;jettySize=auto;html=1;strokeColor=default;align=center;verticalAlign=middle;fontFamily=Helvetica;fontSize=11;fontColor=default;labelBackgroundColor=default;endArrow=open;endFill=1;endSize=12;" parent="1" source="74hEM54ITtvwUSmFD9Kp-18" target="74hEM54ITtvwUSmFD9Kp-62" edge="1">
          <mxGeometry relative="1" as="geometry" />
        </mxCell>
        <mxCell id="74hEM54ITtvwUSmFD9Kp-69" style="edgeStyle=orthogonalEdgeStyle;rounded=0;orthogonalLoop=1;jettySize=auto;html=1;entryX=0.5;entryY=1;entryDx=0;entryDy=0;dashed=1;strokeColor=default;align=center;verticalAlign=middle;fontFamily=Helvetica;fontSize=11;fontColor=default;labelBackgroundColor=default;endArrow=block;endFill=0;endSize=12;exitX=0.322;exitY=-0.008;exitDx=0;exitDy=0;exitPerimeter=0;" parent="1" source="74hEM54ITtvwUSmFD9Kp-18" target="74hEM54ITtvwUSmFD9Kp-68" edge="1">
          <mxGeometry relative="1" as="geometry" />
        </mxCell>
        <mxCell id="74hEM54ITtvwUSmFD9Kp-18" value="TaskOrganizer" style="rounded=1;whiteSpace=wrap;" parent="1" vertex="1">
          <mxGeometry x="-2080" y="-455" width="210" height="50" as="geometry" />
        </mxCell>
        <mxCell id="74hEM54ITtvwUSmFD9Kp-19" value="" style="endArrow=block;dashed=1;endFill=0;endSize=12;html=1;rounded=0;edgeStyle=orthogonalEdgeStyle;exitX=0.5;exitY=0;exitDx=0;exitDy=0;" parent="1" source="74hEM54ITtvwUSmFD9Kp-17" target="74hEM54ITtvwUSmFD9Kp-18" edge="1">
          <mxGeometry width="160" relative="1" as="geometry">
            <mxPoint x="-1925" y="-350" as="sourcePoint" />
            <mxPoint x="-1849" y="45" as="targetPoint" />
          </mxGeometry>
        </mxCell>
        <mxCell id="74hEM54ITtvwUSmFD9Kp-25" value="ActivityTaskManagerService" style="rounded=1;whiteSpace=wrap;" parent="1" vertex="1">
          <mxGeometry x="-1609" y="-1130" width="200" height="50" as="geometry" />
        </mxCell>
        <mxCell id="74hEM54ITtvwUSmFD9Kp-36" style="edgeStyle=orthogonalEdgeStyle;rounded=0;orthogonalLoop=1;jettySize=auto;html=1;strokeColor=default;align=left;verticalAlign=bottom;fontFamily=Helvetica;fontSize=11;fontColor=default;labelBackgroundColor=default;startArrow=diamondThin;startFill=1;startSize=14;endArrow=open;endSize=12;entryX=0.25;entryY=0;entryDx=0;entryDy=0;" parent="1" source="74hEM54ITtvwUSmFD9Kp-26" target="74hEM54ITtvwUSmFD9Kp-35" edge="1">
          <mxGeometry relative="1" as="geometry">
            <Array as="points">
              <mxPoint x="-1370" y="-900" />
              <mxPoint x="-1290" y="-900" />
            </Array>
          </mxGeometry>
        </mxCell>
        <mxCell id="74hEM54ITtvwUSmFD9Kp-37" value="mTransitionController" style="edgeLabel;align=center;verticalAlign=middle;resizable=0;points=[];" parent="74hEM54ITtvwUSmFD9Kp-36" vertex="1" connectable="0">
          <mxGeometry x="1" relative="1" as="geometry">
            <mxPoint y="-30" as="offset" />
          </mxGeometry>
        </mxCell>
        <mxCell id="74hEM54ITtvwUSmFD9Kp-38" style="edgeStyle=orthogonalEdgeStyle;rounded=0;orthogonalLoop=1;jettySize=auto;html=1;strokeColor=default;align=left;verticalAlign=bottom;fontFamily=Helvetica;fontSize=11;fontColor=default;labelBackgroundColor=default;startArrow=diamondThin;startFill=1;startSize=14;endArrow=open;endSize=12;" parent="1" source="74hEM54ITtvwUSmFD9Kp-26" target="74hEM54ITtvwUSmFD9Kp-32" edge="1">
          <mxGeometry relative="1" as="geometry" />
        </mxCell>
        <mxCell id="74hEM54ITtvwUSmFD9Kp-39" value="mTaskFragmentOrganizerController" style="edgeLabel;align=center;verticalAlign=middle;resizable=0;points=[];" parent="74hEM54ITtvwUSmFD9Kp-38" vertex="1" connectable="0">
          <mxGeometry x="1" relative="1" as="geometry">
            <mxPoint y="-23" as="offset" />
          </mxGeometry>
        </mxCell>
        <mxCell id="74hEM54ITtvwUSmFD9Kp-26" value="WindowOrganizerController" style="rounded=1;whiteSpace=wrap;" parent="1" vertex="1">
          <mxGeometry x="-1710" y="-990" width="400" height="50" as="geometry" />
        </mxCell>
        <mxCell id="74hEM54ITtvwUSmFD9Kp-27" value="1" style="endArrow=open;html=1;endSize=12;startArrow=diamondThin;startSize=14;startFill=1;align=left;verticalAlign=bottom;rounded=0;exitX=0.5;exitY=1;exitDx=0;exitDy=0;entryX=0.5;entryY=0;entryDx=0;entryDy=0;" parent="1" source="74hEM54ITtvwUSmFD9Kp-25" target="74hEM54ITtvwUSmFD9Kp-26" edge="1">
          <mxGeometry x="-0.5578" y="9" relative="1" as="geometry">
            <mxPoint x="-1292" y="-1070" as="sourcePoint" />
            <mxPoint x="-1370" y="-980" as="targetPoint" />
            <mxPoint as="offset" />
          </mxGeometry>
        </mxCell>
        <mxCell id="74hEM54ITtvwUSmFD9Kp-28" value="mWindowOrganizerController" style="edgeLabel;align=center;verticalAlign=middle;resizable=0;points=[];" parent="74hEM54ITtvwUSmFD9Kp-27" vertex="1" connectable="0">
          <mxGeometry x="0.1714" y="-2" relative="1" as="geometry">
            <mxPoint as="offset" />
          </mxGeometry>
        </mxCell>
        <mxCell id="74hEM54ITtvwUSmFD9Kp-41" style="rounded=0;orthogonalLoop=1;jettySize=auto;html=1;dashed=1;strokeColor=default;align=center;verticalAlign=middle;fontFamily=Helvetica;fontSize=11;fontColor=default;labelBackgroundColor=default;endArrow=block;endFill=0;endSize=12;exitX=0.25;exitY=1;exitDx=0;exitDy=0;entryX=0.5;entryY=0;entryDx=0;entryDy=0;edgeStyle=orthogonalEdgeStyle;" parent="1" source="74hEM54ITtvwUSmFD9Kp-29" target="74hEM54ITtvwUSmFD9Kp-40" edge="1">
          <mxGeometry relative="1" as="geometry" />
        </mxCell>
        <mxCell id="74hEM54ITtvwUSmFD9Kp-48" style="rounded=0;orthogonalLoop=1;jettySize=auto;html=1;entryX=0.5;entryY=0;entryDx=0;entryDy=0;strokeColor=default;align=left;verticalAlign=bottom;fontFamily=Helvetica;fontSize=11;fontColor=default;labelBackgroundColor=default;startArrow=diamondThin;startFill=0;startSize=14;endArrow=open;endSize=12;flowAnimation=0;exitX=0.75;exitY=1;exitDx=0;exitDy=0;edgeStyle=orthogonalEdgeStyle;" parent="1" source="74hEM54ITtvwUSmFD9Kp-29" target="74hEM54ITtvwUSmFD9Kp-42" edge="1">
          <mxGeometry relative="1" as="geometry" />
        </mxCell>
        <mxCell id="74hEM54ITtvwUSmFD9Kp-50" value="mTaskOrganizers" style="edgeLabel;align=center;verticalAlign=middle;resizable=0;points=[];" parent="74hEM54ITtvwUSmFD9Kp-48" vertex="1" connectable="0">
          <mxGeometry x="0.536" y="2" relative="1" as="geometry">
            <mxPoint as="offset" />
          </mxGeometry>
        </mxCell>
        <mxCell id="74hEM54ITtvwUSmFD9Kp-29" value="TaskOrganizerController" style="rounded=1;whiteSpace=wrap;" parent="1" vertex="1">
          <mxGeometry x="-1930" y="-853" width="230" height="50" as="geometry" />
        </mxCell>
        <mxCell id="74hEM54ITtvwUSmFD9Kp-30" value="1" style="endArrow=open;html=1;endSize=12;startArrow=diamondThin;startSize=14;startFill=1;align=left;verticalAlign=bottom;rounded=0;exitX=0.25;exitY=1;exitDx=0;exitDy=0;entryX=0.5;entryY=0;entryDx=0;entryDy=0;edgeStyle=orthogonalEdgeStyle;" parent="1" source="74hEM54ITtvwUSmFD9Kp-26" target="74hEM54ITtvwUSmFD9Kp-29" edge="1">
          <mxGeometry x="-0.5788" y="-20" relative="1" as="geometry">
            <mxPoint x="-1360" y="-963.54" as="sourcePoint" />
            <mxPoint x="-1270" y="-960" as="targetPoint" />
            <mxPoint as="offset" />
          </mxGeometry>
        </mxCell>
        <mxCell id="74hEM54ITtvwUSmFD9Kp-31" value="mTaskOrganizerController" style="edgeLabel;align=center;verticalAlign=middle;resizable=0;points=[];" parent="74hEM54ITtvwUSmFD9Kp-30" vertex="1" connectable="0">
          <mxGeometry x="1" relative="1" as="geometry">
            <mxPoint y="-22" as="offset" />
          </mxGeometry>
        </mxCell>
        <mxCell id="74hEM54ITtvwUSmFD9Kp-32" value="TaskFragmentOrganizerController" style="rounded=1;whiteSpace=wrap;" parent="1" vertex="1">
          <mxGeometry x="-1610" y="-850" width="200" height="50" as="geometry" />
        </mxCell>
        <mxCell id="74hEM54ITtvwUSmFD9Kp-33" value="ITaskFragmentOrganizerController" style="rounded=1;whiteSpace=wrap;strokeColor=default;align=center;verticalAlign=middle;fontFamily=Helvetica;fontSize=12;fontColor=default;fillColor=#FFCCBC;" parent="1" vertex="1">
          <mxGeometry x="-1610" y="-740" width="200" height="50" as="geometry" />
        </mxCell>
        <mxCell id="74hEM54ITtvwUSmFD9Kp-34" value="" style="endArrow=block;dashed=1;endFill=0;endSize=12;html=1;rounded=0;edgeStyle=orthogonalEdgeStyle;exitX=0.5;exitY=1;exitDx=0;exitDy=0;entryX=0.5;entryY=0;entryDx=0;entryDy=0;" parent="1" source="74hEM54ITtvwUSmFD9Kp-32" target="74hEM54ITtvwUSmFD9Kp-33" edge="1">
          <mxGeometry width="160" relative="1" as="geometry">
            <mxPoint x="-1590" y="-740" as="sourcePoint" />
            <mxPoint x="-1590" y="-800" as="targetPoint" />
          </mxGeometry>
        </mxCell>
        <mxCell id="74hEM54ITtvwUSmFD9Kp-88" style="edgeStyle=orthogonalEdgeStyle;rounded=0;orthogonalLoop=1;jettySize=auto;html=1;entryX=0.5;entryY=0;entryDx=0;entryDy=0;strokeColor=default;align=center;verticalAlign=middle;fontFamily=Helvetica;fontSize=11;fontColor=default;labelBackgroundColor=default;endArrow=open;endFill=1;endSize=12;" parent="1" source="74hEM54ITtvwUSmFD9Kp-35" target="74hEM54ITtvwUSmFD9Kp-82" edge="1">
          <mxGeometry relative="1" as="geometry" />
        </mxCell>
        <mxCell id="74hEM54ITtvwUSmFD9Kp-89" value="mTransitionPlayer" style="edgeLabel;align=center;verticalAlign=middle;resizable=0;points=[];" parent="74hEM54ITtvwUSmFD9Kp-88" vertex="1" connectable="0">
          <mxGeometry x="0.2487" y="1" relative="1" as="geometry">
            <mxPoint y="1" as="offset" />
          </mxGeometry>
        </mxCell>
        <mxCell id="74hEM54ITtvwUSmFD9Kp-35" value="TransitionController" style="rounded=1;whiteSpace=wrap;" parent="1" vertex="1">
          <mxGeometry x="-1340" y="-850" width="200" height="50" as="geometry" />
        </mxCell>
        <mxCell id="74hEM54ITtvwUSmFD9Kp-97" style="edgeStyle=orthogonalEdgeStyle;rounded=0;orthogonalLoop=1;jettySize=auto;html=1;entryX=0;entryY=0.5;entryDx=0;entryDy=0;dashed=1;dashPattern=8 8;strokeColor=default;align=center;verticalAlign=middle;fontFamily=Helvetica;fontSize=11;fontColor=default;labelBackgroundColor=default;elbow=vertical;endArrow=classic;curved=1;exitX=-0.001;exitY=0.574;exitDx=0;exitDy=0;exitPerimeter=0;" parent="1" source="74hEM54ITtvwUSmFD9Kp-40" target="74hEM54ITtvwUSmFD9Kp-29" edge="1">
          <mxGeometry relative="1" as="geometry" />
        </mxCell>
        <mxCell id="74hEM54ITtvwUSmFD9Kp-98" value="registerTaskOrganizer&#xa;unregisterTaskOrganizer&#xa;createRootTask&#xa;deleteRootTask" style="edgeLabel;align=left;verticalAlign=middle;resizable=0;points=[];" parent="74hEM54ITtvwUSmFD9Kp-97" vertex="1" connectable="0">
          <mxGeometry x="-0.1995" y="-1" relative="1" as="geometry">
            <mxPoint x="-41" y="-5" as="offset" />
          </mxGeometry>
        </mxCell>
        <mxCell id="74hEM54ITtvwUSmFD9Kp-40" value="ITaskOrganizerController" style="rounded=1;whiteSpace=wrap;fillColor=#FFCCBC;" parent="1" vertex="1">
          <mxGeometry x="-2007" y="-741" width="150" height="50" as="geometry" />
        </mxCell>
        <mxCell id="74hEM54ITtvwUSmFD9Kp-42" value="ITaskOrganizer" style="rounded=1;whiteSpace=wrap;strokeColor=default;align=center;verticalAlign=middle;fontFamily=Helvetica;fontSize=12;fontColor=default;fillColor=#FFCCBC;" parent="1" vertex="1">
          <mxGeometry x="-1768" y="-740" width="120" height="50" as="geometry" />
        </mxCell>
        <mxCell id="74hEM54ITtvwUSmFD9Kp-56" value="ITaskOrganizer.Stub" style="rounded=1;whiteSpace=wrap;" parent="1" vertex="1">
          <mxGeometry x="-1770.5" y="-455" width="125" height="50" as="geometry" />
        </mxCell>
        <mxCell id="74hEM54ITtvwUSmFD9Kp-57" style="rounded=0;orthogonalLoop=1;jettySize=auto;html=1;dashed=1;strokeColor=default;align=center;verticalAlign=middle;fontFamily=Helvetica;fontSize=11;fontColor=default;labelBackgroundColor=default;endArrow=block;endFill=0;endSize=12;exitX=0.5;exitY=0;exitDx=0;exitDy=0;entryX=0.5;entryY=1;entryDx=0;entryDy=0;edgeStyle=orthogonalEdgeStyle;" parent="1" source="74hEM54ITtvwUSmFD9Kp-56" target="74hEM54ITtvwUSmFD9Kp-42" edge="1">
          <mxGeometry relative="1" as="geometry">
            <mxPoint x="-1665" y="-690" as="sourcePoint" />
            <mxPoint x="-1770" y="-620" as="targetPoint" />
          </mxGeometry>
        </mxCell>
        <mxCell id="74hEM54ITtvwUSmFD9Kp-58" value="" style="endArrow=open;startArrow=circlePlus;endFill=0;startFill=0;endSize=8;html=1;rounded=0;exitX=1;exitY=0.5;exitDx=0;exitDy=0;entryX=0;entryY=0.5;entryDx=0;entryDy=0;" parent="1" source="74hEM54ITtvwUSmFD9Kp-18" target="74hEM54ITtvwUSmFD9Kp-56" edge="1">
          <mxGeometry width="160" relative="1" as="geometry">
            <mxPoint x="-1940" y="-580" as="sourcePoint" />
            <mxPoint x="-1780" y="-580" as="targetPoint" />
          </mxGeometry>
        </mxCell>
        <mxCell id="74hEM54ITtvwUSmFD9Kp-59" value="mInterface" style="edgeLabel;align=center;verticalAlign=middle;resizable=0;points=[];" parent="74hEM54ITtvwUSmFD9Kp-58" vertex="1" connectable="0">
          <mxGeometry x="0.3683" y="3" relative="1" as="geometry">
            <mxPoint x="-8" y="-7" as="offset" />
          </mxGeometry>
        </mxCell>
        <mxCell id="74hEM54ITtvwUSmFD9Kp-61" style="edgeStyle=orthogonalEdgeStyle;rounded=0;orthogonalLoop=1;jettySize=auto;html=1;entryX=0.75;entryY=0;entryDx=0;entryDy=0;dashed=1;dashPattern=8 8;strokeColor=default;align=center;verticalAlign=middle;fontFamily=Helvetica;fontSize=11;fontColor=default;labelBackgroundColor=default;endArrow=none;endFill=0;" parent="1" source="74hEM54ITtvwUSmFD9Kp-60" target="74hEM54ITtvwUSmFD9Kp-18" edge="1">
          <mxGeometry relative="1" as="geometry">
            <Array as="points">
              <mxPoint x="-1853" y="-470" />
              <mxPoint x="-1920" y="-470" />
            </Array>
          </mxGeometry>
        </mxCell>
        <mxCell id="74hEM54ITtvwUSmFD9Kp-60" value="Call registerOrganizer function to register mInterface to TaskOrganizerController,which is in ATMS" style="shape=note;whiteSpace=wrap;backgroundOutline=1;darkOpacity=0.05;fillColor=#fff2cc;strokeColor=#d6b656;align=left;spacingLeft=8;fontSize=10;opacity=70;" parent="1" vertex="1">
          <mxGeometry x="-1920.5" y="-520" width="275" height="40" as="geometry" />
        </mxCell>
        <mxCell id="74hEM54ITtvwUSmFD9Kp-62" value="Executor" style="rounded=1;whiteSpace=wrap;" parent="1" vertex="1">
          <mxGeometry x="-2230" y="-455" width="90" height="50" as="geometry" />
        </mxCell>
        <mxCell id="74hEM54ITtvwUSmFD9Kp-66" style="edgeStyle=orthogonalEdgeStyle;rounded=0;orthogonalLoop=1;jettySize=auto;html=1;entryX=0.5;entryY=1;entryDx=0;entryDy=0;dashed=1;dashPattern=8 8;strokeColor=default;align=center;verticalAlign=middle;fontFamily=Helvetica;fontSize=11;fontColor=default;labelBackgroundColor=default;endArrow=none;endFill=0;" parent="1" source="74hEM54ITtvwUSmFD9Kp-65" target="74hEM54ITtvwUSmFD9Kp-62" edge="1">
          <mxGeometry relative="1" as="geometry">
            <Array as="points">
              <mxPoint x="-2270" y="-380" />
              <mxPoint x="-2185" y="-380" />
            </Array>
          </mxGeometry>
        </mxCell>
        <mxCell id="74hEM54ITtvwUSmFD9Kp-65" value="ITaskOrganizer的方法在Executor中执行。BinderThread转为MainThread或者单独的Shell Executor。" style="shape=note;whiteSpace=wrap;backgroundOutline=1;darkOpacity=0.05;fillColor=#fff2cc;strokeColor=#d6b656;align=left;spacingLeft=8;fontSize=10;opacity=70;verticalAlign=middle;fontFamily=Helvetica;fontColor=default;" parent="1" vertex="1">
          <mxGeometry x="-2375" y="-370" width="300" height="40" as="geometry" />
        </mxCell>
        <mxCell id="74hEM54ITtvwUSmFD9Kp-79" style="edgeStyle=orthogonalEdgeStyle;rounded=0;orthogonalLoop=1;jettySize=auto;html=1;entryX=0.5;entryY=1;entryDx=0;entryDy=0;strokeColor=default;align=center;verticalAlign=middle;fontFamily=Helvetica;fontSize=11;fontColor=default;labelBackgroundColor=default;startArrow=circlePlus;startFill=0;endArrow=block;endFill=0;endSize=12;dashed=1;" parent="1" source="74hEM54ITtvwUSmFD9Kp-67" target="74hEM54ITtvwUSmFD9Kp-78" edge="1">
          <mxGeometry relative="1" as="geometry" />
        </mxCell>
        <mxCell id="74hEM54ITtvwUSmFD9Kp-86" style="edgeStyle=orthogonalEdgeStyle;rounded=0;orthogonalLoop=1;jettySize=auto;html=1;dashed=1;strokeColor=default;align=center;verticalAlign=middle;fontFamily=Helvetica;fontSize=11;fontColor=default;labelBackgroundColor=default;endArrow=open;endSize=12;" parent="1" source="74hEM54ITtvwUSmFD9Kp-67" target="74hEM54ITtvwUSmFD9Kp-17" edge="1">
          <mxGeometry relative="1" as="geometry" />
        </mxCell>
        <mxCell id="74hEM54ITtvwUSmFD9Kp-87" value="registerTransitionPlayer" style="edgeLabel;align=center;verticalAlign=middle;resizable=0;points=[];" parent="74hEM54ITtvwUSmFD9Kp-86" vertex="1" connectable="0">
          <mxGeometry x="0.1106" y="1" relative="1" as="geometry">
            <mxPoint x="-1" as="offset" />
          </mxGeometry>
        </mxCell>
        <mxCell id="74hEM54ITtvwUSmFD9Kp-67" value="Transitions" style="rounded=1;whiteSpace=wrap;" parent="1" vertex="1">
          <mxGeometry x="-1340" y="-290" width="200" height="50" as="geometry" />
        </mxCell>
        <mxCell id="74hEM54ITtvwUSmFD9Kp-71" style="edgeStyle=orthogonalEdgeStyle;rounded=0;orthogonalLoop=1;jettySize=auto;html=1;entryX=0;entryY=0.5;entryDx=0;entryDy=0;strokeColor=default;align=center;verticalAlign=middle;fontFamily=Helvetica;fontSize=11;fontColor=default;labelBackgroundColor=default;endArrow=open;endFill=1;endSize=12;dashed=1;" parent="1" source="74hEM54ITtvwUSmFD9Kp-68" target="74hEM54ITtvwUSmFD9Kp-26" edge="1">
          <mxGeometry relative="1" as="geometry">
            <Array as="points">
              <mxPoint x="-2180" y="-535" />
              <mxPoint x="-2180" y="-965" />
            </Array>
          </mxGeometry>
        </mxCell>
        <mxCell id="74hEM54ITtvwUSmFD9Kp-94" value="public void applyTransaction(WindowContainerTransaction t)&#xa;public int applySyncTransaction(WindowContainerTransaction t,&#xa;    WindowContainerTransactionCallback callback)&#xa;public IBinder startNewTransition(int type,&#xa;   WindowContainerTransaction t)&#xa;public void startTransition(IBinder transitionToken,&#xa;    WindowContainerTransaction t)&#xa;public int finishTransition(IBinder transitionToken,&#xa;    WindowContainerTransaction t,&#xa;    WindowContainerTransactionCallback callback)&#xa;public void registerTransitionPlayer(ITransitionPlayer player)" style="edgeLabel;align=left;verticalAlign=middle;resizable=0;points=[];labelBackgroundColor=default;" parent="74hEM54ITtvwUSmFD9Kp-71" vertex="1" connectable="0">
          <mxGeometry x="-0.0316" relative="1" as="geometry">
            <mxPoint x="-240" y="160" as="offset" />
          </mxGeometry>
        </mxCell>
        <mxCell id="74hEM54ITtvwUSmFD9Kp-68" value="WindowOrganizer" style="rounded=1;whiteSpace=wrap;" parent="1" vertex="1">
          <mxGeometry x="-2082" y="-560" width="140" height="50" as="geometry" />
        </mxCell>
        <mxCell id="74hEM54ITtvwUSmFD9Kp-72" value="Use" style="endArrow=open;endSize=12;dashed=1;html=1;rounded=0;" parent="1" edge="1">
          <mxGeometry width="160" relative="1" as="geometry">
            <mxPoint x="-2440" y="-1120" as="sourcePoint" />
            <mxPoint x="-2280" y="-1120" as="targetPoint" />
          </mxGeometry>
        </mxCell>
        <mxCell id="74hEM54ITtvwUSmFD9Kp-73" value="" style="endArrow=open;endFill=1;endSize=12;html=1;rounded=0;" parent="1" edge="1">
          <mxGeometry width="160" relative="1" as="geometry">
            <mxPoint x="-2440" y="-1080" as="sourcePoint" />
            <mxPoint x="-2280" y="-1080" as="targetPoint" />
          </mxGeometry>
        </mxCell>
        <mxCell id="74hEM54ITtvwUSmFD9Kp-74" value="Extends" style="endArrow=block;endSize=16;endFill=0;html=1;rounded=0;" parent="1" edge="1">
          <mxGeometry width="160" relative="1" as="geometry">
            <mxPoint x="-2440" y="-1040" as="sourcePoint" />
            <mxPoint x="-2280" y="-1040" as="targetPoint" />
          </mxGeometry>
        </mxCell>
        <mxCell id="74hEM54ITtvwUSmFD9Kp-81" style="edgeStyle=orthogonalEdgeStyle;rounded=0;orthogonalLoop=1;jettySize=auto;html=1;entryX=0.5;entryY=1;entryDx=0;entryDy=0;dashed=1;strokeColor=default;align=center;verticalAlign=middle;fontFamily=Helvetica;fontSize=11;fontColor=default;labelBackgroundColor=default;endArrow=block;endFill=0;endSize=12;" parent="1" source="74hEM54ITtvwUSmFD9Kp-78" target="74hEM54ITtvwUSmFD9Kp-80" edge="1">
          <mxGeometry relative="1" as="geometry" />
        </mxCell>
        <mxCell id="74hEM54ITtvwUSmFD9Kp-84" style="edgeStyle=orthogonalEdgeStyle;rounded=0;orthogonalLoop=1;jettySize=auto;html=1;elbow=vertical;curved=1;exitX=1;exitY=0.5;exitDx=0;exitDy=0;entryX=1;entryY=0.5;entryDx=0;entryDy=0;dashed=1;dashPattern=8 8;" parent="1" source="74hEM54ITtvwUSmFD9Kp-78" target="74hEM54ITtvwUSmFD9Kp-67" edge="1">
          <mxGeometry relative="1" as="geometry">
            <mxPoint x="-1070" y="-280" as="targetPoint" />
            <mxPoint x="-1070.0000000000005" y="-410" as="sourcePoint" />
            <Array as="points">
              <mxPoint x="-1060" y="-410" />
              <mxPoint x="-1060" y="-266" />
            </Array>
          </mxGeometry>
        </mxCell>
        <mxCell id="74hEM54ITtvwUSmFD9Kp-85" value="mMainExecutor.execute(&#xa;() -&gt; Transitions.this.&#xa;onTransitionReady()/requestStartTransition());" style="edgeLabel;align=left;verticalAlign=middle;resizable=0;points=[];whiteSpace=wrap;fontSize=12;" parent="74hEM54ITtvwUSmFD9Kp-84" vertex="1" connectable="0">
          <mxGeometry x="-0.0922" y="-1" relative="1" as="geometry">
            <mxPoint x="-119" y="12" as="offset" />
          </mxGeometry>
        </mxCell>
        <mxCell id="74hEM54ITtvwUSmFD9Kp-78" value="TransitionPlayerImpl" style="rounded=1;whiteSpace=wrap;" parent="1" vertex="1">
          <mxGeometry x="-1340" y="-435" width="200" height="50" as="geometry" />
        </mxCell>
        <mxCell id="74hEM54ITtvwUSmFD9Kp-83" style="edgeStyle=orthogonalEdgeStyle;rounded=0;orthogonalLoop=1;jettySize=auto;html=1;entryX=0.5;entryY=1;entryDx=0;entryDy=0;dashed=1;strokeColor=default;align=center;verticalAlign=middle;fontFamily=Helvetica;fontSize=11;fontColor=default;labelBackgroundColor=default;endArrow=block;endFill=0;endSize=12;" parent="1" source="74hEM54ITtvwUSmFD9Kp-80" target="74hEM54ITtvwUSmFD9Kp-82" edge="1">
          <mxGeometry relative="1" as="geometry" />
        </mxCell>
        <mxCell id="74hEM54ITtvwUSmFD9Kp-80" value="ITransitionPlayer.Stub" style="rounded=1;whiteSpace=wrap;" parent="1" vertex="1">
          <mxGeometry x="-1340" y="-560" width="200" height="50" as="geometry" />
        </mxCell>
        <mxCell id="74hEM54ITtvwUSmFD9Kp-82" value="ITransitionPlayer" style="rounded=1;whiteSpace=wrap;strokeColor=default;align=center;verticalAlign=middle;fontFamily=Helvetica;fontSize=12;fontColor=default;fillColor=#FFCCBC;" parent="1" vertex="1">
          <mxGeometry x="-1340" y="-740" width="200" height="50" as="geometry" />
        </mxCell>
        <mxCell id="74hEM54ITtvwUSmFD9Kp-90" style="edgeStyle=orthogonalEdgeStyle;rounded=0;orthogonalLoop=1;jettySize=auto;html=1;elbow=vertical;curved=1;exitX=1;exitY=0.5;exitDx=0;exitDy=0;entryX=1;entryY=0.5;entryDx=0;entryDy=0;dashed=1;dashPattern=8 8;" parent="1" source="74hEM54ITtvwUSmFD9Kp-35" target="74hEM54ITtvwUSmFD9Kp-82" edge="1">
          <mxGeometry relative="1" as="geometry">
            <mxPoint x="-1100" y="-690" as="targetPoint" />
            <mxPoint x="-1100" y="-835" as="sourcePoint" />
            <Array as="points">
              <mxPoint x="-1080" y="-825" />
              <mxPoint x="-1080" y="-715" />
            </Array>
          </mxGeometry>
        </mxCell>
        <mxCell id="74hEM54ITtvwUSmFD9Kp-91" value="onTransitionReady&#xa;/requestStartTransition" style="edgeLabel;align=left;verticalAlign=middle;resizable=0;points=[];whiteSpace=wrap;fontSize=12;" parent="74hEM54ITtvwUSmFD9Kp-90" vertex="1" connectable="0">
          <mxGeometry x="-0.0922" y="-1" relative="1" as="geometry">
            <mxPoint x="-59" y="11" as="offset" />
          </mxGeometry>
        </mxCell>
        <mxCell id="74hEM54ITtvwUSmFD9Kp-92" style="edgeStyle=orthogonalEdgeStyle;rounded=0;orthogonalLoop=1;jettySize=auto;html=1;elbow=vertical;curved=1;exitX=1;exitY=0.5;exitDx=0;exitDy=0;entryX=1;entryY=0.5;entryDx=0;entryDy=0;dashed=1;dashPattern=8 8;" parent="1" target="74hEM54ITtvwUSmFD9Kp-56" edge="1">
          <mxGeometry relative="1" as="geometry">
            <mxPoint x="-1669" y="-580" as="targetPoint" />
            <mxPoint x="-1669" y="-690" as="sourcePoint" />
            <Array as="points">
              <mxPoint x="-1550" y="-690" />
              <mxPoint x="-1550" y="-430" />
            </Array>
          </mxGeometry>
        </mxCell>
        <mxCell id="74hEM54ITtvwUSmFD9Kp-93" value="addStartingWindow&#xa;removeStartingWindow&#xa;onTaskAppeared&#xa;onTaskInfoChanged" style="edgeLabel;align=left;verticalAlign=middle;resizable=0;points=[];fontSize=12;whiteSpace=wrap;" parent="74hEM54ITtvwUSmFD9Kp-92" vertex="1" connectable="0">
          <mxGeometry x="-0.0922" y="-1" relative="1" as="geometry">
            <mxPoint x="-49" y="10" as="offset" />
          </mxGeometry>
        </mxCell>
        <mxCell id="kviKkti8K6tKfeE3gaze-10" value="" style="group" parent="1" vertex="1" connectable="0">
          <mxGeometry x="-1570" y="-150" width="660" height="220" as="geometry" />
        </mxCell>
        <mxCell id="kviKkti8K6tKfeE3gaze-8" value="" style="rounded=1;whiteSpace=wrap;strokeColor=default;align=center;verticalAlign=middle;fontFamily=Helvetica;fontSize=12;fontColor=default;fillColor=default;container=1;collapsible=0;recursiveResize=0;treeMoving=0;" parent="kviKkti8K6tKfeE3gaze-10" vertex="1">
          <mxGeometry y="90" width="660" height="130" as="geometry" />
        </mxCell>
        <mxCell id="74hEM54ITtvwUSmFD9Kp-101" value="StageCoordinator" style="rounded=1;whiteSpace=wrap;" parent="kviKkti8K6tKfeE3gaze-8" vertex="1">
          <mxGeometry x="10" y="10" width="140" height="50" as="geometry" />
        </mxCell>
        <mxCell id="kviKkti8K6tKfeE3gaze-1" value="PipTransition" style="rounded=1;whiteSpace=wrap;" parent="kviKkti8K6tKfeE3gaze-8" vertex="1">
          <mxGeometry x="170" y="10" width="140" height="50" as="geometry" />
        </mxCell>
        <mxCell id="kviKkti8K6tKfeE3gaze-3" value="ActivityEmbeddingController" style="rounded=1;whiteSpace=wrap;" parent="kviKkti8K6tKfeE3gaze-8" vertex="1">
          <mxGeometry x="330" y="10" width="160" height="50" as="geometry" />
        </mxCell>
        <mxCell id="kviKkti8K6tKfeE3gaze-2" value="RecentsTransitionHandler" style="rounded=1;whiteSpace=wrap;" parent="kviKkti8K6tKfeE3gaze-8" vertex="1">
          <mxGeometry x="500" y="10" width="150" height="50" as="geometry" />
        </mxCell>
        <mxCell id="kviKkti8K6tKfeE3gaze-5" value="DefaultMixedHandler" style="rounded=1;whiteSpace=wrap;" parent="kviKkti8K6tKfeE3gaze-8" vertex="1">
          <mxGeometry x="10" y="70" width="140" height="50" as="geometry" />
        </mxCell>
        <mxCell id="kviKkti8K6tKfeE3gaze-6" value="RemoteTransitionHandler" style="rounded=1;whiteSpace=wrap;" parent="kviKkti8K6tKfeE3gaze-8" vertex="1">
          <mxGeometry x="170" y="70" width="150" height="50" as="geometry" />
        </mxCell>
        <mxCell id="kviKkti8K6tKfeE3gaze-4" value="KeyguardTransitionHandler" style="rounded=1;whiteSpace=wrap;" parent="kviKkti8K6tKfeE3gaze-8" vertex="1">
          <mxGeometry x="330" y="70" width="160" height="50" as="geometry" />
        </mxCell>
        <mxCell id="74hEM54ITtvwUSmFD9Kp-99" value="TransitionHandler" style="rounded=1;whiteSpace=wrap;" parent="kviKkti8K6tKfeE3gaze-10" vertex="1">
          <mxGeometry x="230" width="200" height="50" as="geometry" />
        </mxCell>
        <mxCell id="kviKkti8K6tKfeE3gaze-9" style="edgeStyle=orthogonalEdgeStyle;rounded=0;orthogonalLoop=1;jettySize=auto;html=1;entryX=0.5;entryY=1;entryDx=0;entryDy=0;dashed=1;strokeColor=default;align=center;verticalAlign=middle;fontFamily=Helvetica;fontSize=11;fontColor=default;labelBackgroundColor=default;endArrow=block;endFill=0;endSize=12;" parent="kviKkti8K6tKfeE3gaze-10" source="kviKkti8K6tKfeE3gaze-8" target="74hEM54ITtvwUSmFD9Kp-99" edge="1">
          <mxGeometry relative="1" as="geometry" />
        </mxCell>
        <mxCell id="OjJVSSLenPFMxPn3i30--2" style="edgeStyle=orthogonalEdgeStyle;rounded=0;orthogonalLoop=1;jettySize=auto;html=1;entryX=0.75;entryY=0;entryDx=0;entryDy=0;strokeColor=default;align=center;verticalAlign=middle;fontFamily=Helvetica;fontSize=11;fontColor=default;labelBackgroundColor=default;endArrow=open;endFill=1;endSize=12;" edge="1" parent="1" source="OjJVSSLenPFMxPn3i30--1" target="74hEM54ITtvwUSmFD9Kp-35">
          <mxGeometry relative="1" as="geometry" />
        </mxCell>
        <mxCell id="OjJVSSLenPFMxPn3i30--14" value="mTransitionController" style="edgeLabel;align=center;verticalAlign=middle;resizable=0;points=[];" vertex="1" connectable="0" parent="OjJVSSLenPFMxPn3i30--2">
          <mxGeometry x="0.7819" y="1" relative="1" as="geometry">
            <mxPoint x="39" as="offset" />
          </mxGeometry>
        </mxCell>
        <mxCell id="OjJVSSLenPFMxPn3i30--1" value="WIndowContainer" style="rounded=1;whiteSpace=wrap;html=1;" vertex="1" parent="1">
          <mxGeometry x="-1080" y="-1120" width="120" height="60" as="geometry" />
        </mxCell>
        <mxCell id="OjJVSSLenPFMxPn3i30--15" style="edgeStyle=orthogonalEdgeStyle;rounded=0;orthogonalLoop=1;jettySize=auto;html=1;entryX=0.5;entryY=1;entryDx=0;entryDy=0;dashed=1;dashPattern=8 8;endArrow=none;endFill=0;" edge="1" parent="1" source="OjJVSSLenPFMxPn3i30--4" target="OjJVSSLenPFMxPn3i30--1">
          <mxGeometry relative="1" as="geometry" />
        </mxCell>
        <mxCell id="OjJVSSLenPFMxPn3i30--4" value="WIndowContainer在构造方法中初始化mTransitionController&#xa;mTransitionController = mWmService.mAtmService.getTransitionController();" style="shape=note;whiteSpace=wrap;backgroundOutline=1;darkOpacity=0.05;fillColor=#fff2cc;strokeColor=#d6b656;align=left;spacingLeft=8;fontSize=10;opacity=70;" vertex="1" parent="1">
          <mxGeometry x="-1220" y="-963" width="310" height="40" as="geometry" />
        </mxCell>
        <mxCell id="OjJVSSLenPFMxPn3i30--9" style="edgeStyle=orthogonalEdgeStyle;rounded=0;orthogonalLoop=1;jettySize=auto;html=1;entryX=1;entryY=0.5;entryDx=0;entryDy=0;dashed=1;strokeColor=default;align=center;verticalAlign=middle;fontFamily=Helvetica;fontSize=11;fontColor=default;labelBackgroundColor=default;endArrow=block;endFill=0;endSize=12;" edge="1" parent="1" source="OjJVSSLenPFMxPn3i30--8" target="OjJVSSLenPFMxPn3i30--1">
          <mxGeometry relative="1" as="geometry" />
        </mxCell>
        <mxCell id="OjJVSSLenPFMxPn3i30--12" style="edgeStyle=orthogonalEdgeStyle;rounded=0;orthogonalLoop=1;jettySize=auto;html=1;entryX=0.5;entryY=0;entryDx=0;entryDy=0;exitX=0.149;exitY=0.99;exitDx=0;exitDy=0;exitPerimeter=0;strokeColor=default;align=left;verticalAlign=bottom;fontFamily=Helvetica;fontSize=11;fontColor=default;labelBackgroundColor=default;startArrow=diamondThin;startFill=1;startSize=14;endArrow=open;endSize=12;" edge="1" parent="1" source="OjJVSSLenPFMxPn3i30--8" target="OjJVSSLenPFMxPn3i30--10">
          <mxGeometry relative="1" as="geometry" />
        </mxCell>
        <mxCell id="OjJVSSLenPFMxPn3i30--13" style="edgeStyle=orthogonalEdgeStyle;rounded=0;orthogonalLoop=1;jettySize=auto;html=1;entryX=0.5;entryY=0;entryDx=0;entryDy=0;exitX=0.778;exitY=0.997;exitDx=0;exitDy=0;exitPerimeter=0;strokeColor=default;align=left;verticalAlign=bottom;fontFamily=Helvetica;fontSize=11;fontColor=default;labelBackgroundColor=default;startArrow=diamondThin;startFill=1;startSize=14;endArrow=open;endSize=12;" edge="1" parent="1" source="OjJVSSLenPFMxPn3i30--8" target="OjJVSSLenPFMxPn3i30--11">
          <mxGeometry relative="1" as="geometry" />
        </mxCell>
        <mxCell id="OjJVSSLenPFMxPn3i30--8" value="DisplayContent" style="rounded=1;whiteSpace=wrap;html=1;" vertex="1" parent="1">
          <mxGeometry x="-801" y="-1120" width="410" height="60" as="geometry" />
        </mxCell>
        <mxCell id="OjJVSSLenPFMxPn3i30--10" value="AppTransition" style="rounded=1;whiteSpace=wrap;" vertex="1" parent="1">
          <mxGeometry x="-800" y="-983" width="120" height="60" as="geometry" />
        </mxCell>
        <mxCell id="OjJVSSLenPFMxPn3i30--11" value="AppTransitionController" style="rounded=1;whiteSpace=wrap;" vertex="1" parent="1">
          <mxGeometry x="-572" y="-983" width="180" height="60" as="geometry" />
        </mxCell>
      </root>
    </mxGraphModel>
  </diagram>
  <diagram id="CiXOwKs35pjF8nElTD0T" name="SplitScreenController">
    <mxGraphModel dx="994" dy="723" grid="1" gridSize="10" guides="1" tooltips="1" connect="1" arrows="1" fold="1" page="1" pageScale="1" pageWidth="827" pageHeight="1169" math="0" shadow="0">
      <root>
        <mxCell id="0" />
        <mxCell id="1" parent="0" />
        <mxCell id="9wlYV5u1bUs0pkvpdlxI-1" value="StageCoordinator" style="rounded=1;whiteSpace=wrap;" vertex="1" parent="1">
          <mxGeometry x="120" y="80" width="140" height="40" as="geometry" />
        </mxCell>
      </root>
    </mxGraphModel>
  </diagram>
</mxfile>
